<svg width="44" height="45" viewBox="0 0 44 45" fill="none" xmlns="http://www.w3.org/2000/svg">
<g clip-path="url(#clip0_63_369)">
<path d="M27.955 22.5433C27.6924 22.5427 27.4356 22.4669 27.2147 22.3249C26.9939 22.1829 26.8183 21.9807 26.7088 21.7421C26.5993 21.5035 26.5603 21.2385 26.5966 20.9785C26.6329 20.7185 26.7428 20.4743 26.9135 20.2748L28.8968 17.9598L26.9135 15.6483C26.7931 15.5117 26.701 15.3525 26.6427 15.1801C26.5843 15.0076 26.5607 14.8253 26.5734 14.6437C26.586 14.462 26.6346 14.2847 26.7163 14.122C26.7981 13.9593 26.9113 13.8145 27.0495 13.6959C27.1876 13.5773 27.348 13.4873 27.5212 13.4312C27.6944 13.3751 27.877 13.354 28.0584 13.369C28.2399 13.384 28.4165 13.4349 28.5782 13.5188C28.7398 13.6026 28.8831 13.7178 28.9999 13.8575L31.7497 17.0661C31.9636 17.3154 32.0812 17.633 32.0812 17.9615C32.0812 18.29 31.9636 18.6076 31.7497 18.8569L28.9999 22.0656C28.8705 22.2159 28.7101 22.3364 28.5297 22.4188C28.3494 22.5013 28.1533 22.5438 27.955 22.5433ZM16.0432 22.5433C15.8449 22.5438 15.6488 22.5013 15.4685 22.4188C15.2881 22.3364 15.1277 22.2159 14.9983 22.0656L12.2485 18.8569C12.0346 18.6076 11.917 18.29 11.917 17.9615C11.917 17.633 12.0346 17.3154 12.2485 17.0661L14.9983 13.8575C15.1159 13.7204 15.2593 13.6077 15.4204 13.5261C15.5815 13.4444 15.7572 13.3953 15.9373 13.3815C16.1174 13.3677 16.2984 13.3895 16.4701 13.4456C16.6417 13.5018 16.8007 13.5912 16.9378 13.7088C17.0749 13.8264 17.1875 13.9698 17.2692 14.1309C17.3508 14.292 17.4 14.4676 17.4138 14.6477C17.4276 14.8278 17.4058 15.0089 17.3496 15.1806C17.2934 15.3522 17.204 15.5112 17.0864 15.6483L15.1031 17.9598L17.0864 20.2731C17.2577 20.4726 17.3682 20.7172 17.4047 20.9776C17.4412 21.2381 17.4022 21.5035 17.2924 21.7425C17.1826 21.9815 17.0065 22.184 16.7851 22.3259C16.5637 22.4679 16.3062 22.5433 16.0432 22.5433ZM20.3174 25.2588C20.1413 25.2182 19.975 25.1434 19.8278 25.0385C19.6806 24.9337 19.5556 24.8008 19.4598 24.6476C19.3641 24.4943 19.2994 24.3237 19.2697 24.1455C19.2399 23.9673 19.2455 23.7849 19.2863 23.6089L22.036 11.6937C22.1181 11.3382 22.338 11.0298 22.6474 10.8364C22.9568 10.6431 23.3304 10.5805 23.6859 10.6626C24.0414 10.7446 24.3498 10.9645 24.5432 11.2739C24.7366 11.5833 24.7991 11.9569 24.7171 12.3124L21.9673 24.2276C21.9268 24.4037 21.8519 24.5701 21.7471 24.7172C21.6422 24.8644 21.5093 24.9894 21.3561 25.0852C21.2029 25.1809 21.0323 25.2456 20.8541 25.2754C20.6758 25.3051 20.4935 25.2995 20.3174 25.2588Z" fill="#F857A6"/>
<path d="M40.7879 4.26758H3.20866C2.35892 4.27164 1.54515 4.611 0.944287 5.21187C0.343427 5.81273 0.00406687 6.6265 0 7.47623L0 32.2243C0.00406687 33.074 0.343427 33.8878 0.944287 34.4887C1.54515 35.0895 2.35892 35.4289 3.20866 35.433H17.2463C17.0315 36.3524 16.4609 37.839 14.9348 39.3686C14.8066 39.4967 14.7193 39.66 14.6839 39.8377C14.6485 40.0154 14.6667 40.1997 14.736 40.3671C14.8054 40.5345 14.9229 40.6776 15.0736 40.7783C15.2243 40.8789 15.4015 40.9326 15.5827 40.9325H28.4156C28.597 40.9329 28.7744 40.8795 28.9254 40.779C29.0763 40.6785 29.1941 40.5354 29.2636 40.3679C29.3332 40.2004 29.3515 40.016 29.3162 39.8381C29.2809 39.6602 29.1935 39.4968 29.0652 39.3686C27.5425 37.8459 26.9565 36.3541 26.7279 35.433H40.7896C41.6389 35.428 42.452 35.0883 43.0524 34.4876C43.6528 33.8869 43.9921 33.0736 43.9966 32.2243V7.47623C43.9912 6.62691 43.6514 5.81392 43.0508 5.21335C42.4502 4.61278 41.6372 4.27299 40.7879 4.26758ZM40.3308 28.0996H3.66581V7.9351H40.329V28.0996H40.3308Z" fill="#605DBA"/>
</g>
<defs>
<clipPath id="clip0_63_369">
<rect width="44" height="44" fill="white" transform="translate(0 0.600098)"/>
</clipPath>
</defs>
</svg>
