<svg width="44" height="45" viewBox="0 0 44 45" fill="none" xmlns="http://www.w3.org/2000/svg">
<g clip-path="url(#clip0_63_374)">
<path d="M32.0838 20.7662C29.7267 20.7659 27.4224 21.4645 25.4624 22.7738C23.5023 24.0831 21.9745 25.9441 21.0722 28.1217C20.1698 30.2993 19.9335 32.6955 20.393 35.0074C20.8525 37.3193 21.9872 39.443 23.6537 41.11C25.3202 42.777 27.4436 43.9123 29.7554 44.3725C32.0672 44.8327 34.4635 44.597 36.6413 43.6953C38.8191 42.7936 40.6806 41.2663 41.9905 39.3067C43.3003 37.347 43.9996 35.0429 43.9999 32.6858C43.9963 29.5262 42.7398 26.4971 40.506 24.2626C38.2722 22.0282 35.2434 20.7708 32.0838 20.7662ZM38.5017 30.2194L32.0856 37.5533C31.9201 37.7423 31.7176 37.8952 31.4905 38.0025C31.2634 38.1099 31.0166 38.1693 30.7656 38.1772H30.7054C30.22 38.1767 29.7546 37.9839 29.4112 37.6409L25.7451 33.9748C25.5748 33.8045 25.4397 33.6024 25.3475 33.3799C25.2554 33.1573 25.2079 32.9189 25.2079 32.678C25.2079 32.4372 25.2554 32.1987 25.3475 31.9762C25.4397 31.7537 25.5748 31.5515 25.7451 31.3812C26.089 31.0373 26.5555 30.8441 27.0419 30.8441C27.2827 30.8441 27.5212 30.8915 27.7437 30.9837C27.9662 31.0758 28.1684 31.2109 28.3387 31.3812L30.6177 33.662L35.7499 27.808C35.9039 27.6117 36.0964 27.4489 36.3154 27.3295C36.5345 27.2101 36.7757 27.1367 37.0241 27.1138C37.2725 27.0908 37.523 27.1188 37.7603 27.196C37.9975 27.2732 38.2165 27.398 38.4039 27.5627C38.5912 27.7275 38.743 27.9287 38.8499 28.1542C38.9568 28.3796 39.0165 28.6245 39.0255 28.8738C39.0345 29.1231 38.9925 29.3717 38.9022 29.6042C38.8118 29.8368 38.6749 30.0484 38.4999 30.2262L38.5017 30.2194Z" fill="#F857A6"/>
<path d="M30.58 6.15513L15.9122 0.655127C15.6984 0.581266 15.466 0.581266 15.2522 0.655127L0.58266 6.15513C0.410408 6.2232 0.262674 6.34161 0.158736 6.49491C0.054797 6.64822 -0.00051964 6.82929 3.67907e-06 7.0145V18.8034C3.67907e-06 35.5234 15.235 39.0434 15.3828 39.0847C15.5157 39.1099 15.6521 39.1099 15.785 39.0847C16.4162 38.9371 17.035 38.7411 17.6361 38.4986C16.8838 36.653 16.4979 34.6787 16.5 32.6858C16.5025 28.7112 18.0217 24.8874 20.7475 21.9948C23.4734 19.1022 27.2004 17.3589 31.1678 17.1208V7.01966C31.1675 6.83395 31.1112 6.65266 31.0064 6.49938C30.9015 6.3461 30.7529 6.22794 30.58 6.16028V6.15513Z" fill="#605DBA"/>
</g>
<defs>
<clipPath id="clip0_63_374">
<rect width="44" height="44" fill="white" transform="translate(0 0.600098)"/>
</clipPath>
</defs>
</svg>
